<svg width="72" height="71" viewBox="0 0 72 71" fill="none" xmlns="http://www.w3.org/2000/svg">
<g clip-path="url(#clip0_409_173)">
<path d="M19.7658 54.7138C30.3426 63.5889 46.1115 62.2093 54.9866 51.6324C63.8616 41.0555 62.482 25.2867 51.9051 16.4116C41.3283 7.53656 25.5594 8.91616 16.6843 19.493C7.80929 30.0699 9.18889 45.8388 19.7658 54.7138Z" fill="#F0F0F0"/>
<path d="M51.9051 16.4116C41.3283 7.53662 25.5593 8.91623 16.6843 19.493C14.7187 21.8356 13.2571 24.4332 12.2861 27.1538L48.206 57.2942C50.7166 55.8655 53.0209 53.975 54.9866 51.6324C63.8615 41.0556 62.4819 25.2866 51.9051 16.4116Z" fill="#0052B4"/>
<path d="M51.9051 16.4116C43.6708 9.5022 32.2902 8.8091 23.4649 13.8313L59.3849 43.9717C62.7982 34.4084 60.1394 23.321 51.9051 16.4116V16.4116Z" fill="#D80027"/>
<path d="M28.6233 15.3219L20.6069 24.8755C16.0469 30.3099 21.7491 37.9322 21.7491 37.9322C21.7491 37.9322 30.2457 42.2241 34.8057 36.7897L42.8221 27.2361L28.6233 15.3219Z" fill="#D80027"/>
<path d="M30.162 19.4509L38.4886 26.4378L41.2834 23.1071L38.9194 22.5424L38.5175 17.9484L33.9234 18.3503L32.9568 16.1203L30.162 19.4509Z" fill="#FFDA44"/>
<path d="M32.0243 36.7226L31.1535 26.7689L21.1998 27.6397L21.484 30.8881L28.1893 30.3015L28.7759 37.0068L32.0243 36.7226Z" fill="#FFDA44"/>
<path d="M36.2661 31.6674L33.7409 29.5485C34.0885 29.4225 34.4093 29.208 34.664 28.9044C35.4358 27.9846 35.3157 26.6135 34.396 25.8418C33.7605 25.3085 32.91 25.2014 32.1902 25.4891C32.3484 24.7303 32.0953 23.9112 31.4598 23.3779C30.5401 22.6062 29.1689 22.726 28.3971 23.6459C28.1424 23.9495 27.9867 24.3027 27.9231 24.6668L25.4416 22.5845C24.6698 23.5043 24.8453 24.9221 25.765 25.6937L25.7095 25.6472C24.9377 26.567 25.0577 27.9381 25.9775 28.7099C25.2941 29.5243 25.3113 30.6916 25.9622 31.4846L22.1641 33.3461C22.5785 34.1294 23.1465 34.848 23.8671 35.4527C24.5876 36.0573 25.394 36.4919 26.2373 36.764L27.4111 32.7003C28.3049 33.2038 29.4575 33.0179 30.1409 32.2034C31.0607 32.9752 32.4318 32.8553 33.2036 31.9355L33.1482 31.889C34.0677 32.6606 35.4944 32.5871 36.2661 31.6674V31.6674Z" fill="#F0F0F0"/>
</g>
<defs>
<clipPath id="clip0_409_173">
<rect width="50" height="50" fill="white" transform="translate(32.754 0.341919) rotate(40)"/>
</clipPath>
</defs>
</svg>
