<svg width="72" height="72" viewBox="0 0 72 72" fill="none" xmlns="http://www.w3.org/2000/svg">
<g clip-path="url(#clip0_409_116)">
<path d="M16.7382 19.7699C9.82884 28.0041 9.13574 39.3847 14.1578 48.2099L30.8934 31.6474L44.2981 12.2901C34.7349 8.87684 23.6476 11.5356 16.7382 19.7699Z" fill="#6DA544"/>
<path d="M55.0404 51.9093C63.9154 41.3325 62.5358 25.5635 51.959 16.6885C49.6164 14.7228 47.0188 13.2613 44.2981 12.2901L14.1577 48.21C15.5865 50.7208 17.477 53.0251 19.8196 54.9907C30.3964 63.8657 46.1654 62.4861 55.0404 51.9093Z" fill="#D80027"/>
<path d="M23.6386 36.9114C27.3175 39.9983 32.8023 39.5185 35.8893 35.8396C38.9762 32.1607 38.4964 26.6759 34.8175 23.5889C31.1386 20.502 25.6538 20.9818 22.5668 24.6607C19.4799 28.3396 19.9597 33.8244 23.6386 36.9114Z" fill="#FFDA44"/>
<path d="M28.2759 23.7755L24.7825 27.9387C23.0461 30.0081 23.3159 33.0933 25.3854 34.8298C27.4548 36.5662 30.5399 36.2963 32.2764 34.2269L35.7698 30.0636L28.2759 23.7755Z" fill="#D80027"/>
<path d="M27.4814 32.3318C26.7927 31.7539 26.7025 30.7234 27.2804 30.0348L28.6777 28.3695L31.1757 30.4655L29.7783 32.1309C29.2005 32.8195 28.17 32.9096 27.4814 32.3318Z" fill="#F0F0F0"/>
</g>
<defs>
<clipPath id="clip0_409_116">
<rect width="50" height="50" fill="white" transform="translate(32.1011 0.618774) rotate(40)"/>
</clipPath>
</defs>
</svg>
