<svg width="71" height="71" viewBox="0 0 71 71" fill="none" xmlns="http://www.w3.org/2000/svg">
<g clip-path="url(#clip0_409_123)">
<path d="M19.3494 54.404C29.9262 63.279 45.6951 61.8994 54.5702 51.3225C63.4452 40.7457 62.0656 24.9768 51.4888 16.1017C40.9119 7.22669 25.143 8.60629 16.268 19.1832C7.39291 29.76 8.77251 45.5289 19.3494 54.404Z" fill="#F0F0F0"/>
<path d="M39.6112 30.2569L58.1026 45.773C59.1173 43.5886 59.7961 41.2974 60.1436 38.972L43.8033 25.2609L39.6112 30.2569Z" fill="#338AF3"/>
<path d="M10.9215 40.2375L34.7641 60.2438C37.6799 60.3183 40.5976 59.8852 43.3751 58.9557L10.6947 31.5336C10.2618 34.4304 10.3419 37.379 10.9215 40.2375V40.2375Z" fill="#338AF3"/>
<path d="M51.4888 16.1017L47.9954 20.265L59.9167 30.2682C58.8315 24.9177 55.9959 19.8836 51.4888 16.1017V16.1017Z" fill="#338AF3"/>
<path d="M39.6112 30.2569L58.1026 45.773C59.1173 43.5886 59.7961 41.2974 60.1436 38.972L43.8033 25.2609L39.6112 30.2569Z" fill="#338AF3"/>
<path d="M16.2679 19.1832C14.8175 20.9118 13.6429 22.7795 12.7356 24.7327L49.7184 55.765C51.4843 54.5322 53.1197 53.0512 54.5702 51.3225L16.2679 19.1832Z" fill="#338AF3"/>
<path d="M39.5862 25.2137L36.3241 24.3513L35.6688 27.6616L33.5367 25.0446L31.0621 27.3402L30.8765 23.9689L27.5241 24.3714L29.3551 21.5359L26.4078 19.8904L29.5539 18.6703L28.1382 15.6076L31.4002 16.4702L32.0554 13.1598L34.1875 15.7767L36.6622 13.4812L36.8478 16.8526L40.2002 16.45L38.3692 19.2855L41.3166 20.9309L38.1703 22.1511L39.5862 25.2137Z" fill="#FFDA44"/>
</g>
<defs>
<clipPath id="clip0_409_123">
<rect width="50" height="50" fill="white" transform="translate(32.3376 0.0320435) rotate(40)"/>
</clipPath>
</defs>
</svg>
